<?xml version="1.0" encoding="UTF-8"?>
<svg id="Layer_2" data-name="Layer 2" xmlns="http://www.w3.org/2000/svg" viewBox="0 0 122.74 46.87">
  <defs>
    <style>
      .cls-1 {
        fill: #fff;
      }

      .cls-2 {
        fill: #f9f9f9;
      }
    </style>
  </defs>
  <g id="Layer_2-2" data-name="Layer 2">
    <g>
      <path class="cls-2" d="M29.05,19.17v22.4s-.25,2.9-3.2,3.15-23.65,0-23.65,0V2.87h26.85v16.3ZM0,46.87h27s4.1-.2,4.2-4.45,0-21,0-21l.05-20.8H0v46.25Z"/>
      <polygon class="cls-2" points="1.8 38.37 8.7 30.12 27.25 44.83 29.25 43.37 10.07 28.27 29.7 4.39 29.62 1.12 .62 35.97 1.8 38.37"/>
      <polygon class="cls-2" points="20.11 26.49 29.75 14.42 29.75 18.52 22.11 27.95 20.11 26.49"/>
    </g>
    <g id="Layer_2-2" data-name="Layer 2-2">
      <path class="cls-1" d="M79.77.63v14.29L93.15.66c2.81-.15,5.6.11,8.41.03l-12.23,13.1,12.76,17.4h-8.68l-9.1-12.38-4.68,4.72.06,7.66h-7.11V.63h7.19Z"/>
      <path class="cls-1" d="M59.36,15.98h6.57l-.09,12.1c-.04.12-.17.15-.26.19-1.29.69-3.16,1.43-4.54,1.95-6.08,2.34-13.82,1.92-18.73-2.67-4.15-3.88-5.08-7.78-4.74-13.37.45-7.33,6.04-12.64,13.06-13.92,5.63-1.03,11.47,1.04,15.84,4.52l-4.4,5.01c-1.24-1.25-2.77-2.38-4.49-2.85-3.51-.96-6.88-.64-9.84,1.59-3.75,2.82-3.86,7.91-2.09,11.93,2.41,5.45,8.63,5.65,13.58,3.92l.11-8.41h0Z"/>
      <path class="cls-1" d="M122.74.7c-.01,1.31.02,2.63,0,3.94-.06,5.04-.03,10.09-.15,15.13-.08,3.48-.5,6.09-2.94,8.75-4.66,5.08-14.14,3.63-18.23-1.48l3.7-4.48c1.29,1.28,3.14,2.72,4.99,3.04,1.95.33,3.62-.56,4.67-2.17.74-1.14.43-2.05.47-3.35.15-5.65.18-11.32.31-16.96.02-.83-.02-1.66,0-2.49,0,0,7.18.08,7.18.08Z"/>
      <polygon class="cls-1" points="109.17 36.93 112.61 42.43 112.57 36.93 114.17 36.85 114.25 45.21 112.51 45.32 109.13 39.91 109.13 45.33 107.64 45.33 107.53 45.22 107.53 36.93 109.17 36.93"/>
      <path class="cls-1" d="M50.61,37.08c.88.08,1.72.42,2.09,1.28.68,1.6-.17,3.18-1.89,3.42,1.34.88,1.96,2.43,2.83,3.71h-2.02c-.79-.87-1.36-2.3-2.18-3.1-.46-.45-1.08-.43-1.68-.42l.08,3.52h-1.76v-8.41c1.47.1,3.1-.13,4.55,0h0ZM47.74,40.6h2.56c.19,0,.67-.36.74-.56.15-.37.1-.99-.22-1.27-.06-.05-.4-.24-.45-.24h-2.64v2.07Z"/>
      <path class="cls-1" d="M63.33,45.41v-8.29l.11-.11h3.6l.67.1c3.94.75,3.36,8.31-.29,8.31h-4.09ZM65.09,43.96h2.18c.38,0,.95-.55,1.09-.9.47-1.11.51-4.1-.99-4.48-.14-.03-.67-.13-.79-.13h-1.49v5.5h0Z"/>
      <path class="cls-1" d="M101.7,36.8c3.32-.34,5.1,2.24,4.58,5.35-.78,4.63-7.67,4.49-8.08-.44-.2-2.43.89-4.64,3.5-4.9h0ZM103.83,43.4c1.2-1.14,1.05-4.53-.89-5.06-3.37-.9-3.9,4.44-1.63,5.46.79.35,1.89.2,2.52-.4h0Z"/>
      <path class="cls-1" d="M57.35,36.95c2.71-.31,4.67,1.14,4.83,3.91.19,3.14-1.75,5.08-4.92,4.68-4.38-.55-4.38-8.1.08-8.6h0ZM57.73,38.4c-1.77.24-2.06,2.12-1.88,3.6.31,2.66,3.89,2.94,4.47.2.39-1.86-.29-4.12-2.59-3.8h0Z"/>
      <path class="cls-1" d="M120.3,39.37c-.1-1.14-1.21-1.39-2.18-1.13s-1.04,1.06-.1,1.46c1.33.57,3.48.48,4.09,2.11.7,1.87-.62,3.41-2.48,3.6-2.13.22-4.05-.53-4.16-2.89l1.56-.15.08.07c.2,1.21,1.1,1.68,2.27,1.51,1.04-.15,1.68-1.36.62-1.88-1.45-.72-4.23-.49-4.31-2.88-.1-2.99,5.24-3.3,6.16-.79.09.24.31.86,0,.92-.43.08-1.11.03-1.56.07h0Z"/>
      <path class="cls-1" d="M76.64,37.01h1.76v5.77c0,2.16-1.84,2.9-3.71,2.79-2.26-.13-2.91-1.29-3.03-3.39-.09-1.69.08-3.46,0-5.16h1.64l.11.11v5.73s.15.43.19.5c.37.7,1.28.77,1.99.67.45-.06,1.04-.56,1.04-1.02v-6h0Z"/>
      <path class="cls-1" d="M40.1,42.36v3.14h-1.76v-8.41h3.78c.25,0,.91.12,1.17.21,1.57.53,1.94,2.87.97,4.08-.49.62-1.35.99-2.14.99h-2.02ZM40.1,40.9h1.64c.13,0,.57-.14.7-.22.28-.15.51-.43.55-.75.24-1.7-1.8-1.38-2.9-1.4v2.37h0Z"/>
      <path class="cls-1" d="M87.04,39.3l-1.63.38c-.31-.65-.72-1.23-1.48-1.35-2.35-.37-2.69,2.42-2.27,4.11.56,2.29,3.44,2.11,3.71-.15l1.68.46c-.47,3.13-4.62,3.7-6.45,1.36-1.18-1.5-1.12-4.47.08-5.95,1.69-2.1,5.72-1.71,6.38,1.14h0Z"/>
      <polygon class="cls-1" points="94.45 36.93 94.45 38.38 92 38.38 92 45.33 90.25 45.33 90.25 38.38 87.72 38.38 87.72 37.04 87.84 36.93 94.45 36.93"/>
      <rect class="cls-1" x="95.37" y="36.93" width="1.68" height="8.41"/>
    </g>
  </g>
</svg>